HIERARCHY
ROOT Hips
{
  OFFSET -213.699 104.721 0.752556
  CHANNELS 6 Xposition Yposition Zposition Zrotation Xrotation Yrotation
  JOINT RightUpLeg
  {
    OFFSET -8.9458 -8.66707 0.101652
    CHANNELS 3 Zrotation Xrotation Yrotation
    JOINT RightLeg
    {
      OFFSET 0 -44.4227 1.3727
      CHANNELS 3 Zrotation Xrotation Yrotation
      JOINT RightFoot
      {
        OFFSET 0.253549 -42.0924 -1.46059
        CHANNELS 3 Zrotation Xrotation Yrotation
        JOINT RightToes
        {
          OFFSET 0.04 -4.41509 8.4991
          CHANNELS 3 Zrotation Xrotation Yrotation
          End Site
          {
            OFFSET -0.08 -0.137448 9.77979
          }
        }
      }
    }
  }
  JOINT Spine
  {
    OFFSET 0 11.8905 0
    CHANNELS 3 Zrotation Xrotation Yrotation
    JOINT Spine1
    {
      OFFSET 0 25.6574 0.127663
      CHANNELS 3 Zrotation Xrotation Yrotation
      JOINT HEad
      {
        OFFSET 0 8.73416 0.011341
        CHANNELS 3 Zrotation Xrotation Yrotation
        End Site
        {
          OFFSET -0.29 12.7742 2.51395
        }
      }
      JOINT LeftShoulder1
      {
        OFFSET 8.99 -0.362252 -0.22
        CHANNELS 3 Zrotation Xrotation Yrotation
        JOINT LeftArm
        {
          OFFSET 10.2827 -0.00337999 0.322123
          CHANNELS 3 Zrotation Xrotation Yrotation
          JOINT LeftForeArm
          {
            OFFSET 26.2597 0.099144 -1.42434
            CHANNELS 3 Zrotation Xrotation Yrotation
            JOINT LeftHand
            {
              OFFSET 22.0902 0.085362 1.02216
              CHANNELS 3 Zrotation Xrotation Yrotation
              End Site
              {
                OFFSET 13.419 -0.6 1.50291
              }
            }
          }
        }
      }
      JOINT RightShoulder
      {
        OFFSET -8.99 -0.362252 -0.22
        CHANNELS 3 Zrotation Xrotation Yrotation
        JOINT RightArm
        {
          OFFSET -10.2827 -0.00338 0.322123
          CHANNELS 3 Zrotation Xrotation Yrotation
          JOINT RightForeArm
          {
            OFFSET -26.364 0.099144 -1.42434
            CHANNELS 3 Zrotation Xrotation Yrotation
            JOINT RightHand
            {
              OFFSET -22.0324 0.085362 1.02216
              CHANNELS 3 Zrotation Xrotation Yrotation
              End Site
              {
                OFFSET -13.3284 -0.6 1.50291
              }
            }
          }
        }
      }
    }
  }
  JOINT LeftUpLeg
  {
    OFFSET 8.9458 -8.66707 0.101652
    CHANNELS 3 Zrotation Xrotation Yrotation
    JOINT LeftLeg
    {
      OFFSET 0 -44.4227 1.3727
      CHANNELS 3 Zrotation Xrotation Yrotation
      JOINT LeftFoot
      {
        OFFSET -0.253549 -42.0924 -1.46059
        CHANNELS 3 Zrotation Xrotation Yrotation
        JOINT LeftToes
        {
          OFFSET -0.04 -4.41509 8.4991
          CHANNELS 3 Zrotation Xrotation Yrotation
          End Site
          {
            OFFSET 0.08 -0.047448 9.77979
          }
        }
      }
    }
  }
}
MOTION
Frames:	14
Frame Time:	0.0333333
-218.656 103.97 9.30191 5.11077 3.75735 165.209 2.11249 -10.3119 10.0817 -1.78877 21.1549 9.33958 9.68193 -6.02389 -0.295267 0.0462048 0.000530889 0.662642 -5.12882 6.20759 -1.61473 6.07276 6.30077 -3.22894 9.34726 8.09247 -41.6664 -30.9771 -3.97701 14.2201 -76.9478 -48.0802 -38.1794 -169.349 72.8191 172.576 21.5439 3.96941 -21.3923 29.6061 -1.48951 -8.28601 47.6095 -16.8253 17.3163 6.23027 52.838 10.2814 -3.11416 9.73658 2.74023 2.3662 0.844756 -9.55567 1.25001 22.1623 -13.0338 5.42575 -12.6942 0.304736 -1.32834e-009 8.75271e-006 -1.4778e-008 
-219.898 104.104 9.65303 5.19926 2.80675 159.25 2.45487 -10.0048 6.55231 -1.19567 21.6411 1.43739 8.14814 -6.95221 -0.216743 0.0462048 0.000530889 0.662642 -4.08998 5.00659 -1.14023 4.6557 6.62076 -2.35596 8.9058 7.40819 -41.1036 -31.4069 -4.1685 14.6033 -73.7933 -47.7803 -35.7166 -168.597 72.9484 170.461 12.1057 8.52039 -9.62018 29.2019 -1.50953 -8.39557 48.3103 -17.466 18.2855 7.75343 55.0732 8.41366 -2.78699 9.76578 2.3048 1.39832 1.50168 -5.09296 2.08243 19.9031 -11.1684 5.49252 -12.5159 0.29698 -1.32834e-009 8.75271e-006 -1.4778e-008 
-220.994 104.194 9.96845 5.12556 1.97887 153.703 2.64805 -9.73956 2.93728 -0.783669 23.0868 -5.50848 5.2739 -7.84604 -0.168823 0.0462048 0.000530889 0.662642 -3.51195 4.14423 -0.982874 3.84526 6.83752 -1.98327 8.2857 6.36273 -39.8758 -32.0101 -4.45024 15.1631 -71.3919 -48.6608 -34.1693 -167.241 74.292 168.613 8.02328 9.04932 -8.44026 29.3209 -1.29918 -7.78566 48.4513 -17.3263 18.3581 7.31402 56.2484 8.82848 -2.559 9.7834 2.09094 0.485226 1.91649 -1.9045 2.29206 17.9599 -8.34849 6.20347 -12.2049 0.309226 -1.32834e-009 8.75271e-006 -1.4778e-008 
-221.926 104.217 10.268 4.93289 1.38076 148.283 2.04886 -9.44052 -2.98769 -0.615321 25.2976 -7.94992 2.05934 -9.01342 -0.153217 0.0462048 0.000530889 0.662642 -3.16666 4.20141 -0.756201 3.34744 6.13751 -1.63683 6.87294 5.36 -38.8912 -32.4989 -4.67038 15.5836 -69.5557 -49.8056 -32.7061 -167.757 73.7971 169.266 8.45454 8.99375 -8.37027 28.8203 -1.30394 -7.85879 48.6463 -16.4462 19.0252 8.0648 56.5346 8.18867 -3.00916 9.74622 2.60354 -0.361332 1.9116 -0.16748 2.06293 16.9804 -4.60028 6.27832 -11.8998 0.292799 -1.32834e-009 8.75271e-006 -1.4778e-008 
-222.845 104.225 10.5977 4.87899 0.987599 142.972 1.85793 -8.8133 -5.2807 -0.811246 27.4236 -11.2158 0.878458 -9.69016 -0.16928 0.0462048 0.000530889 0.662642 -3.00041 4.3209 -0.62669 3.15483 5.90114 -1.45541 6.20901 4.17328 -35.9873 -32.5886 -4.66591 15.5434 -69.4475 -51.4824 -32.049 -169.855 71.5267 172.692 9.13174 8.95189 -7.79263 28.6522 -1.23053 -7.66919 48.6692 -15.4021 19.9471 7.54827 55.4007 8.97722 -2.00759 9.81492 2.71311 -1.3579 1.84751 0.115185 1.92028 16.3964 0.660669 6.68936 -11.6124 0.289678 -1.32834e-009 8.75271e-006 -1.4778e-008 
-223.678 104.259 10.9021 4.96727 0.442678 137.584 1.84055 -7.78621 -6.07946 -0.891112 28.4304 -13.4496 -0.730755 -10.2807 -0.206759 0.0462048 0.000530889 0.662642 -2.39328 4.18289 -0.45528 2.51036 5.94615 -1.13064 5.04926 2.50574 -32.5359 -32.2491 -4.45753 15.1088 -70.1427 -53.2572 -31.7347 -171.21 69.2496 175.714 8.90043 8.94444 -8.28397 28.9787 -1.19633 -7.53339 48.6911 -14.7132 20.7911 7.02214 54.7299 9.66857 -1.89233 9.81784 3.25041 -1.91468 1.76591 0.60443 1.75698 15.7096 5.75644 6.62004 -11.3593 0.27068 -1.32834e-009 8.75271e-006 -1.4778e-008 
-224.306 104.337 11.1743 4.90326 -0.170382 132.73 1.78653 -6.20137 -6.27877 -0.935994 27.7001 -14.4711 -2.56202 -10.7659 -0.261758 0.0462048 0.000530889 0.662642 -2.14278 3.57073 -0.390346 2.35829 6.34559 -1.03211 4.1251 1.89587 -30.7884 -32.0255 -4.29475 14.7539 -70.8414 -54.2694 -31.4138 -171.381 69.1086 176.865 8.77877 8.99972 -7.68614 29.02 -1.21121 -7.57121 48.5026 -12.989 21.4569 6.42883 53.9257 10.6216 -2.39524 9.78121 3.19029 -2.20021 1.53018 0.978777 1.49807 15.0283 10.16 6.5372 -10.971 0.242824 -1.32834e-009 8.75271e-006 -1.4778e-008 
-224.8 104.515 11.5038 4.5271 -0.816254 127.993 1.65955 -4.9193 -5.89267 -0.902486 26.4739 -14.5406 -3.9496 -10.5971 -0.293449 0.0462048 0.000530889 0.662642 -2.28277 2.88461 -0.449357 2.57652 6.7091 -1.1096 3.91431 2.05388 -27.4545 -32.3216 -4.54495 15.3145 -72.206 -54.8849 -32.53 -171.996 66.7325 178.742 8.73108 9.02918 -7.3308 28.8792 -1.26718 -7.74663 48.5552 -11.0296 22.2864 5.9159 52.7111 11.5054 -1.72736 9.8336 2.76649 -2.47855 1.33977 1.08942 1.26839 13.752 14.6123 6.50408 -10.2141 0.19365 -1.32834e-009 8.75271e-006 -1.4778e-008 
-225.143 104.644 11.9664 4.20087 -1.64035 123.729 2.12336 -3.59968 -3.99521 -0.760015 24.3308 -14.6233 -3.509 -9.30294 -0.228694 0.0462048 0.000530889 0.662642 -2.50725 2.06398 -0.488693 3.13386 7.05011 -1.27047 3.51571 2.08261 -24.2679 -32.5554 -4.62619 15.4521 -71.7281 -54.8832 -31.9382 -172.089 66.1964 178.72 8.86121 9.02831 -7.13496 28.7358 -1.19376 -7.55368 48.5522 -9.94897 22.3336 5.26814 51.8546 12.3679 -1.2972 9.86415 2.62649 -2.20653 0.880849 1.47948 1.04422 12.8788 18.4097 6.29426 -9.77676 0.161732 -1.32834e-009 8.75271e-006 -1.4778e-008 
-225.486 104.784 12.4975 3.77575 -2.31156 120.204 2.34855 -2.35302 -2.19613 -0.591673 21.8556 -14.0682 -0.912568 -6.40609 -0.167499 0.0462048 0.000530889 0.662642 -2.42771 1.57921 -0.698653 3.01277 7.15895 -1.43367 3.68986 2.01426 -21.9356 -32.2713 -4.56988 15.3937 -71.4913 -54.1733 -31.6416 -172.05 66.4489 178.043 8.87394 9.03604 -7.00446 28.9856 -1.21835 -7.59542 48.8452 -10.0467 22.4608 5.50976 51.9313 12.0911 -1.27566 9.86576 2.56037 -1.93919 0.247633 1.70329 0.945824 12.3277 21.6105 6.08615 -9.31471 0.130068 -1.32834e-009 8.75271e-006 -1.4778e-008 
-225.886 104.782 13.0928 3.28612 -2.39496 117.057 1.76747 -0.819294 -1.55689 -0.379024 18.2742 -12.3763 5.29842 -5.28969 -0.258138 0.0462048 0.000530889 0.662642 -3.04021 1.44926 -0.729329 3.22031 7.3278 -1.52139 3.76878 1.57649 -19.8761 -32.1624 -4.4612 15.1464 -71.7962 -53.1102 -32.1393 -171.909 67.0553 177.146 8.59872 9.02338 -7.63911 28.9734 -1.22413 -7.61328 49.3198 -10.5921 22.3382 5.51089 52.1437 11.9797 -1.48596 9.85185 2.43908 -2.09741 -0.517547 1.74864 0.814291 12.4662 24.5998 5.81319 -9.12686 0.115529 -1.32834e-009 8.75271e-006 -1.4778e-008 
-226.315 104.645 13.701 2.83799 -2.23278 114.061 0.940779 0.580075 -1.97895 0.0953197 14.0316 -8.9745 6.04737 -5.63111 -0.265498 0.0462048 0.000530889 0.662642 -2.99648 1.99227 -0.660493 2.5575 6.99187 -1.30475 3.5797 1.09175 -18.5338 -32.0071 -4.46842 15.2104 -72.9317 -51.6702 -33.994 -171.825 67.3213 176.532 8.54107 9.01457 -7.87144 28.7914 -1.18804 -7.53088 49.8002 -11.4204 21.7572 5.08362 53.3802 12.1688 -1.51883 9.85009 2.30673 -2.29396 -1.78267 1.88203 0.521232 13.865 27.3866 5.41428 -9.40799 0.12473 -1.32834e-009 8.75271e-006 -1.4778e-008 
-226.761 104.304 14.3852 2.6777 -2.26782 111.484 0.825743 1.16592 -1.9433 0.275912 11.5934 -6.21286 5.93213 -6.48623 -0.226794 0.0462048 0.000530889 0.662642 -2.42702 2.63341 -0.412955 2.07417 6.76919 -0.930947 3.17438 0.600935 -17.6802 -31.6589 -4.24393 14.7296 -73.3319 -49.8693 -34.602 -171.299 68.6791 174.787 8.8914 8.99069 -7.62846 28.4584 -1.14522 -7.44494 50.8008 -14.0249 21.3357 5.21756 55.9859 11.4289 -1.82442 9.82801 2.5922 -1.68178 -3.85906 3.56199 -0.016902 17.2459 28.2696 4.42033 -10.7383 0.168628 -1.32834e-009 8.75271e-006 -1.4778e-008 
-227.492 103.89 15.1425 2.78731 -2.88865 110.889 1.6216 0.0910142 -1.92387 0.651662 12.336 -6.20561 4.69008 -7.10765 -0.190268 0.0462048 0.000530889 0.662642 -1.40452 4.51471 -0.835381 2.59861 5.90052 -1.37397 2.52432 -0.610343 -16.2537 -31.5837 -4.28196 14.8513 -74.5391 -47.4131 -36.6104 -170.073 70.8529 172.295 8.69872 9.01313 -7.61691 28.3007 -1.10309 -7.34043 50.0313 -13.441 20.7091 4.73306 54.3776 12.1582 -2.00483 9.81545 2.61247 -0.213401 -6.96113 6.53777 0.602302 22.2833 24.4634 3.22957 -11.9784 0.181739 -1.32834e-009 8.75271e-006 -1.4778e-008 
